# xmcd CD database file
#
# Track frame offsets:
#	150
#	10693
#	23190
#	28898
#	40412
#	50895
#	59896
#	66026
#	74726
#	90246
#
# Disc length: 1380 seconds
#
# Revision: 1
# Processed by: cddbd v1.5.2PL0 Copyright (c) Steve Scherf et al.
# Submitted via: CDex 1.70beta2
#
DISCID=9005620a
DTITLE=Cantar e Brincar Vol.03 - O trem Maluco
DYEAR=2008
DGENRE=Infantil
TTITLE0=O trem maluco
TTITLE1=Fala bum chica bum
TTITLE2=Pombinha branca
TTITLE3=Adoleta
TTITLE4=Se o espirito de Deus
TTITLE5=Nao atirei o pau no gato
TTITLE6=Ba, be, bi, bo, bu
TTITLE7=A galinha da vizinha
TTITLE8=Egito
TTITLE9=Caminhando vou pra Canaa
EXTD=YEAR: 2008
EXTT0=
EXTT1=
EXTT2=
EXTT3=
EXTT4=
EXTT5=
EXTT6=
EXTT7=
EXTT8=
EXTT9=
PLAYORDER=
